<svg id="Calque_1" data-name="Calque 1" xmlns="http://www.w3.org/2000/svg" viewBox="0 0 16 16"><defs><style>.cls-1{fill:#2d3f54;}.cls-2{fill:#8f2525;}</style></defs><path class="cls-1" d="M8.13,0A8,8,0,1,1,0,7.5,8,8,0,0,1,8.13,0ZM9.2,5.66V4A1.14,1.14,0,0,0,8,2.72,1.14,1.14,0,0,0,6.8,4v.28c0,1,0,2,0,3a.71.71,0,0,1-.38.7,2.84,2.84,0,0,0-.87,3.92A2.87,2.87,0,1,0,9.55,8a.66.66,0,0,1-.36-.66C9.21,6.78,9.2,6.22,9.2,5.66Zm1.23-.08h0a4.34,4.34,0,0,0,.51,0,.22.22,0,0,0,.2-.26.21.21,0,0,0-.21-.21H10a.22.22,0,0,0-.21.22.23.23,0,0,0,.21.25A3.53,3.53,0,0,0,10.43,5.58Zm0-2.2c.15,0,.31,0,.46,0a.22.22,0,0,0,.23-.23.23.23,0,0,0-.23-.24c-.31,0-.61,0-.92,0a.22.22,0,0,0-.23.24.22.22,0,0,0,.23.23C10.14,3.39,10.3,3.38,10.45,3.38Zm0,3.9h0c-.16,0-.33,0-.5,0a.23.23,0,0,0-.23.24.2.2,0,0,0,.19.22,4.27,4.27,0,0,0,1,0,.23.23,0,0,0,0-.45A3.49,3.49,0,0,0,10.49,7.28Zm-.23-.62h.19c.16,0,.27-.07.26-.24s-.11-.24-.27-.25a2.26,2.26,0,0,0-.45,0,.24.24,0,0,0-.23.24.22.22,0,0,0,.23.24Zm0-2.17c.18,0,.42.07.47-.23S10.61,4,10.22,4s-.48.07-.46.25S10,4.47,10.24,4.49Z"/><path class="cls-1" d="M8.71,5.88c0,.59,0,1.18,0,1.76a.63.63,0,0,0,.41.68,2.29,2.29,0,0,1,1.26,2.29,2.33,2.33,0,0,1-1.69,2.07,2.37,2.37,0,0,1-1.91-4.3A.78.78,0,0,1,7,8.27c.27-.08.33-.28.32-.54,0-1,0-1.91,0-2.87,0-.33,0-.65,0-1A.71.71,0,1,1,8.71,4ZM6,10.22A2.06,2.06,0,0,0,8.1,12.43,2,2,0,0,0,10,10.79a2,2,0,0,0-1-2.17.93.93,0,0,1-.6-1c0-.54,0-1.08,0-1.62,0-.3-.21-.43-.46-.35s-.23.23-.23.41c0,.54,0,1.08,0,1.62a.87.87,0,0,1-.57.94A1.89,1.89,0,0,0,6,10.22Z"/><path class="cls-2" d="M6,10.22A1.89,1.89,0,0,1,7.09,8.6a.87.87,0,0,0,.57-.94c0-.54,0-1.08,0-1.62,0-.18,0-.35.23-.41s.45,0,.46.35c0,.54,0,1.08,0,1.62a.93.93,0,0,0,.6,1,2,2,0,0,1,1,2.17A2,2,0,0,1,8.1,12.43,2.06,2.06,0,0,1,6,10.22Z"/></svg>